<svg width="304" height="42" viewBox="0 0 304 42" fill="none" xmlns="http://www.w3.org/2000/svg">
<path d="M4.49219 32V15.56H0.0721875V10.76H4.49219V9.3C4.49219 7.88667 4.67885 6.68 5.05219 5.68C5.43885 4.66666 5.95885 3.82667 6.61219 3.16C7.26552 2.48 7.99885 1.94667 8.81219 1.56C9.63885 1.16 10.4855 0.879999 11.3522 0.719997C12.2322 0.546666 13.0855 0.46 13.9122 0.46C14.7922 0.46 15.4455 0.513332 15.8722 0.619998C16.3122 0.713332 16.6055 0.793333 16.7522 0.859999V5.68C16.5922 5.62667 16.3055 5.56667 15.8922 5.5C15.4922 5.43333 15.0589 5.4 14.5922 5.4C13.8189 5.4 13.1789 5.5 12.6722 5.7C12.1655 5.9 11.7655 6.19333 11.4722 6.58C11.1789 6.95333 10.9722 7.4 10.8522 7.92C10.7322 8.42667 10.6722 8.98 10.6722 9.58V10.76H16.3722V15.56H10.6722V32H4.49219ZM21.0891 23.24V19.14H35.1691L34.5691 20.18C34.5691 20.0733 34.5691 19.9733 34.5691 19.88C34.5691 19.7733 34.5691 19.6733 34.5691 19.58C34.5691 18.82 34.3891 18.0933 34.0291 17.4C33.6691 16.6933 33.1091 16.12 32.3491 15.68C31.6024 15.2267 30.6424 15 29.4691 15C28.2957 15 27.2824 15.2533 26.4291 15.76C25.5891 16.2533 24.9424 16.9667 24.4891 17.9C24.0491 18.8333 23.8291 19.96 23.8291 21.28C23.8291 22.64 24.0424 23.8067 24.4691 24.78C24.9091 25.74 25.5557 26.48 26.4091 27C27.2757 27.52 28.3491 27.78 29.6291 27.78C30.4557 27.78 31.1691 27.7067 31.7691 27.56C32.3691 27.4 32.8557 27.2 33.2291 26.96C33.6157 26.72 33.9091 26.4533 34.1091 26.16C34.3091 25.8667 34.4291 25.58 34.4691 25.3H40.5891C40.5091 26.1933 40.2024 27.0733 39.6691 27.94C39.1357 28.7933 38.3957 29.5667 37.4491 30.26C36.5024 30.94 35.3491 31.48 33.9891 31.88C32.6424 32.28 31.1024 32.48 29.3691 32.48C27.0224 32.48 24.9757 32.0133 23.2291 31.08C21.4824 30.1333 20.1291 28.8333 19.1691 27.18C18.2091 25.5133 17.7291 23.5933 17.7291 21.42C17.7291 19.22 18.2157 17.2933 19.1891 15.64C20.1757 13.9733 21.5424 12.68 23.2891 11.76C25.0491 10.8267 27.0824 10.36 29.3891 10.36C31.7491 10.36 33.7891 10.8333 35.5091 11.78C37.2291 12.7133 38.5557 14.0267 39.4891 15.72C40.4224 17.4 40.8891 19.36 40.8891 21.6C40.8891 21.9333 40.8824 22.2533 40.8691 22.56C40.8557 22.8667 40.8357 23.0933 40.8091 23.24H21.0891ZM47.1438 23.24V19.14H61.2238L60.6238 20.18C60.6238 20.0733 60.6238 19.9733 60.6238 19.88C60.6238 19.7733 60.6238 19.6733 60.6238 19.58C60.6238 18.82 60.4438 18.0933 60.0838 17.4C59.7238 16.6933 59.1638 16.12 58.4038 15.68C57.6571 15.2267 56.6971 15 55.5238 15C54.3504 15 53.3371 15.2533 52.4838 15.76C51.6438 16.2533 50.9971 16.9667 50.5438 17.9C50.1038 18.8333 49.8838 19.96 49.8838 21.28C49.8838 22.64 50.0971 23.8067 50.5238 24.78C50.9638 25.74 51.6104 26.48 52.4638 27C53.3304 27.52 54.4038 27.78 55.6838 27.78C56.5104 27.78 57.2238 27.7067 57.8238 27.56C58.4238 27.4 58.9104 27.2 59.2838 26.96C59.6704 26.72 59.9638 26.4533 60.1638 26.16C60.3638 25.8667 60.4838 25.58 60.5238 25.3H66.6438C66.5638 26.1933 66.2571 27.0733 65.7238 27.94C65.1904 28.7933 64.4504 29.5667 63.5038 30.26C62.5571 30.94 61.4038 31.48 60.0438 31.88C58.6971 32.28 57.1571 32.48 55.4238 32.48C53.0771 32.48 51.0304 32.0133 49.2838 31.08C47.5371 30.1333 46.1838 28.8333 45.2238 27.18C44.2638 25.5133 43.7838 23.5933 43.7838 21.42C43.7838 19.22 44.2704 17.2933 45.2438 15.64C46.2304 13.9733 47.5971 12.68 49.3438 11.76C51.1038 10.8267 53.1371 10.36 55.4438 10.36C57.8038 10.36 59.8438 10.8333 61.5638 11.78C63.2838 12.7133 64.6104 14.0267 65.5438 15.72C66.4771 17.4 66.9438 19.36 66.9438 21.6C66.9438 21.9333 66.9371 22.2533 66.9238 22.56C66.9104 22.8667 66.8904 23.0933 66.8638 23.24H47.1438ZM77.2384 0.739998V32H71.1184V0.739998H77.2384ZM81.9456 32V10.76H88.0856V32H81.9456ZM85.0056 7.3C84.0456 7.3 83.2056 7.04667 82.4856 6.54C81.779 6.03333 81.4256 5.32 81.4256 4.4C81.4256 3.46667 81.779 2.74667 82.4856 2.24C83.2056 1.73333 84.0456 1.48 85.0056 1.48C85.979 1.48 86.819 1.73333 87.5256 2.24C88.2456 2.74667 88.6056 3.46667 88.6056 4.4C88.6056 5.33333 88.2456 6.05333 87.5256 6.56C86.819 7.05333 85.979 7.3 85.0056 7.3ZM107.614 32V22.98C107.614 22.4733 107.614 22.0133 107.614 21.6C107.614 21.1867 107.614 20.8133 107.614 20.48C107.614 19.6 107.501 18.8 107.274 18.08C107.048 17.3467 106.641 16.76 106.054 16.32C105.468 15.88 104.621 15.66 103.514 15.66C102.554 15.66 101.721 15.88 101.014 16.32C100.321 16.76 99.7877 17.3733 99.4144 18.16C99.041 18.9467 98.8544 19.8533 98.8544 20.88L97.1344 19.64C97.1344 17.8 97.5344 16.1867 98.3344 14.8C99.1344 13.4133 100.214 12.3267 101.574 11.54C102.948 10.7533 104.468 10.36 106.134 10.36C107.881 10.36 109.314 10.7133 110.434 11.42C111.568 12.1133 112.408 13.0867 112.954 14.34C113.514 15.58 113.794 17.0333 113.794 18.7C113.794 19.38 113.794 20.14 113.794 20.98C113.794 21.82 113.794 22.68 113.794 23.56V32H107.614ZM92.6544 32V10.76H98.8544V32H92.6544ZM133.096 29.48C134.402 29.6133 135.542 29.8667 136.516 30.24C137.502 30.6 138.269 31.14 138.816 31.86C139.362 32.5667 139.636 33.5133 139.636 34.7C139.636 36.0733 139.182 37.24 138.276 38.2C137.382 39.1733 136.069 39.9133 134.336 40.42C132.602 40.9267 130.502 41.18 128.036 41.18C124.396 41.18 121.576 40.6533 119.576 39.6C117.589 38.56 116.596 37.1667 116.596 35.42C116.596 34.9267 116.649 34.48 116.756 34.08C116.876 33.6933 117.022 33.36 117.196 33.08L122.836 33.9C122.769 33.9933 122.696 34.1333 122.616 34.32C122.549 34.52 122.516 34.7667 122.516 35.06C122.516 35.7667 123.042 36.2933 124.096 36.64C125.162 36.9867 126.536 37.16 128.216 37.16C129.402 37.16 130.416 37.0733 131.256 36.9C132.109 36.74 132.756 36.5 133.196 36.18C133.649 35.86 133.876 35.4933 133.876 35.08C133.876 34.48 133.582 34.0867 132.996 33.9C132.422 33.7133 131.756 33.58 130.996 33.5L122.956 32.68C121.476 32.5333 120.249 32.1067 119.276 31.4C118.302 30.6933 117.816 29.74 117.816 28.54C117.816 27.7933 118.022 27.1133 118.436 26.5C118.849 25.8733 119.322 25.36 119.856 24.96C120.389 24.5467 120.836 24.2867 121.196 24.18L124.356 25.78C124.102 25.82 123.802 25.98 123.456 26.26C123.122 26.54 122.956 26.8667 122.956 27.24C122.956 27.6133 123.142 27.9333 123.516 28.2C123.902 28.4667 124.602 28.6467 125.616 28.74L133.096 29.48ZM135.196 10.76H140.656L138.436 18.92C138.022 20.4667 137.409 21.8467 136.596 23.06C135.782 24.26 134.696 25.2067 133.336 25.9C131.989 26.5933 130.289 26.94 128.236 26.94C126.076 26.94 124.202 26.6067 122.616 25.94C121.042 25.2733 119.829 24.3333 118.976 23.12C118.122 21.8933 117.696 20.4467 117.696 18.78C117.696 17.1133 118.129 15.6467 118.996 14.38C119.876 13.1133 121.069 12.1267 122.576 11.42C124.096 10.7133 125.816 10.36 127.736 10.36C129.189 10.36 130.516 10.6 131.716 11.08C132.929 11.5467 133.902 12.1667 134.636 12.94C135.382 13.7133 135.769 14.5667 135.796 15.5L134.656 15.8L135.196 10.76ZM128.196 22.4C129.076 22.4 129.849 22.26 130.516 21.98C131.182 21.6867 131.702 21.2667 132.076 20.72C132.449 20.16 132.636 19.4867 132.636 18.7C132.636 17.9267 132.449 17.2667 132.076 16.72C131.702 16.1733 131.182 15.7533 130.516 15.46C129.849 15.1667 129.076 15.02 128.196 15.02C127.356 15.02 126.596 15.1733 125.916 15.48C125.249 15.7733 124.722 16.2 124.336 16.76C123.949 17.3067 123.756 17.9733 123.756 18.76C123.756 19.5333 123.942 20.1933 124.316 20.74C124.689 21.2733 125.209 21.6867 125.876 21.98C126.542 22.26 127.316 22.4 128.196 22.4Z" fill="#00F58E"/>
<path d="M157.37 32V22.62C157.37 21.7933 157.37 21.08 157.37 20.48C157.37 19.8667 157.37 19.3533 157.37 18.94C157.37 18.42 157.33 17.86 157.25 17.26C157.183 16.6467 157.017 16.0733 156.75 15.54C156.483 14.9933 156.063 14.5467 155.49 14.2C154.93 13.8533 154.15 13.68 153.15 13.68C152.137 13.68 151.283 13.88 150.59 14.28C149.897 14.6667 149.337 15.18 148.91 15.82C148.483 16.46 148.177 17.1667 147.99 17.94C147.803 18.7 147.71 19.4533 147.71 20.2L145.79 19.42C145.79 17.82 146.123 16.34 146.79 14.98C147.457 13.62 148.39 12.5267 149.59 11.7C150.803 10.86 152.223 10.44 153.85 10.44C155.463 10.44 156.777 10.7667 157.79 11.42C158.803 12.0733 159.55 12.9733 160.03 14.12C160.51 15.2667 160.75 16.5867 160.75 18.08C160.75 18.6133 160.75 19.3 160.75 20.14C160.75 20.9667 160.75 21.9133 160.75 22.98V32H157.37ZM144.31 32V10.76H147.71V32H144.31ZM170.39 32V22.62C170.39 21.7133 170.39 20.9667 170.39 20.38C170.39 19.78 170.39 19.2733 170.39 18.86C170.39 18.34 170.357 17.78 170.29 17.18C170.223 16.58 170.057 16.02 169.79 15.5C169.523 14.9667 169.097 14.5333 168.51 14.2C167.937 13.8533 167.13 13.68 166.09 13.68C165.063 13.68 164.203 13.8733 163.51 14.26C162.83 14.6467 162.283 15.1533 161.87 15.78C161.47 16.4067 161.183 17.0867 161.01 17.82C160.837 18.54 160.75 19.2333 160.75 19.9L158.83 19.16C158.83 17.64 159.15 16.22 159.79 14.9C160.443 13.5667 161.363 12.4933 162.55 11.68C163.75 10.8533 165.17 10.44 166.81 10.44C168.343 10.44 169.623 10.74 170.65 11.34C171.69 11.94 172.47 12.7867 172.99 13.88C173.523 14.96 173.79 16.2467 173.79 17.74C173.79 18.3 173.79 18.9933 173.79 19.82C173.79 20.6467 173.79 21.58 173.79 22.62V32H170.39ZM189.761 32.38C187.627 32.38 185.741 31.9067 184.101 30.96C182.474 30 181.194 28.6933 180.261 27.04C179.341 25.3733 178.881 23.48 178.881 21.36C178.881 19.24 179.341 17.36 180.261 15.72C181.194 14.08 182.474 12.7933 184.101 11.86C185.741 10.9267 187.627 10.46 189.761 10.46C191.894 10.46 193.774 10.9267 195.401 11.86C197.041 12.7933 198.321 14.08 199.241 15.72C200.174 17.36 200.641 19.24 200.641 21.36C200.641 23.48 200.174 25.3733 199.241 27.04C198.321 28.6933 197.041 30 195.401 30.96C193.774 31.9067 191.894 32.38 189.761 32.38ZM189.761 29.26C191.227 29.26 192.521 28.9333 193.641 28.28C194.761 27.6267 195.634 26.7067 196.261 25.52C196.901 24.3333 197.221 22.9467 197.221 21.36C197.221 19.7733 196.901 18.4 196.261 17.24C195.634 16.0667 194.761 15.1667 193.641 14.54C192.521 13.9 191.227 13.58 189.761 13.58C188.307 13.58 187.014 13.9 185.881 14.54C184.761 15.1667 183.881 16.0667 183.241 17.24C182.614 18.4 182.301 19.7733 182.301 21.36C182.301 22.9467 182.614 24.3333 183.241 25.52C183.881 26.7067 184.761 27.6267 185.881 28.28C187.014 28.9333 188.307 29.26 189.761 29.26ZM222.149 10.76L215.029 32H210.569L203.289 10.76H206.809L213.069 30.2H212.529L218.629 10.76H222.149ZM226.619 32V10.76H229.979V32H226.619ZM228.319 5.88C227.693 5.88 227.146 5.70667 226.679 5.36C226.226 5 225.999 4.51333 225.999 3.9C225.999 3.3 226.226 2.82667 226.679 2.48C227.146 2.12 227.693 1.94 228.319 1.94C228.946 1.94 229.486 2.12 229.939 2.48C230.393 2.82667 230.619 3.3 230.619 3.9C230.619 4.51333 230.393 5 229.939 5.36C229.486 5.70667 228.946 5.88 228.319 5.88ZM237.402 22.74V19.7H253.822L253.222 20.7C253.222 20.62 253.222 20.5467 253.222 20.48C253.222 20.4 253.222 20.3267 253.222 20.26C253.222 19.0333 252.962 17.9133 252.442 16.9C251.936 15.8733 251.176 15.0533 250.162 14.44C249.149 13.8267 247.896 13.52 246.402 13.52C244.896 13.52 243.569 13.84 242.422 14.48C241.276 15.12 240.382 16.0267 239.742 17.2C239.102 18.36 238.782 19.7467 238.782 21.36C238.782 23 239.089 24.4133 239.702 25.6C240.329 26.7867 241.216 27.7 242.362 28.34C243.509 28.98 244.869 29.3 246.442 29.3C247.562 29.3 248.536 29.1867 249.362 28.96C250.189 28.72 250.869 28.4067 251.402 28.02C251.949 27.62 252.362 27.1867 252.642 26.72C252.922 26.2533 253.089 25.7867 253.142 25.32H256.542C256.476 26.1733 256.209 27.02 255.742 27.86C255.276 28.7 254.616 29.4667 253.762 30.16C252.909 30.84 251.862 31.3867 250.622 31.8C249.382 32.2133 247.956 32.42 246.342 32.42C244.209 32.42 242.329 31.9533 240.702 31.02C239.076 30.0867 237.796 28.7933 236.862 27.14C235.942 25.4867 235.482 23.5867 235.482 21.44C235.482 19.2667 235.949 17.36 236.882 15.72C237.816 14.0667 239.102 12.7733 240.742 11.84C242.382 10.9067 244.256 10.44 246.362 10.44C248.509 10.44 250.369 10.9067 251.942 11.84C253.516 12.7733 254.729 14.0533 255.582 15.68C256.436 17.2933 256.862 19.1333 256.862 21.2C256.862 21.4133 256.856 21.6933 256.842 22.04C256.829 22.3867 256.809 22.62 256.782 22.74H237.402ZM264.242 32.52C263.588 32.52 263.035 32.3 262.582 31.86C262.142 31.4067 261.922 30.8533 261.922 30.2C261.922 29.56 262.142 29.0133 262.582 28.56C263.035 28.1067 263.588 27.88 264.242 27.88C264.882 27.88 265.428 28.1067 265.882 28.56C266.335 29.0133 266.562 29.56 266.562 30.2C266.562 30.8533 266.335 31.4067 265.882 31.86C265.428 32.3 264.882 32.52 264.242 32.52ZM272.635 32V10.76H275.995V32H272.635ZM274.335 5.88C273.708 5.88 273.162 5.70667 272.695 5.36C272.242 5 272.015 4.51333 272.015 3.9C272.015 3.3 272.242 2.82667 272.695 2.48C273.162 2.12 273.708 1.94 274.335 1.94C274.962 1.94 275.502 2.12 275.955 2.48C276.408 2.82667 276.635 3.3 276.635 3.9C276.635 4.51333 276.408 5 275.955 5.36C275.502 5.70667 274.962 5.88 274.335 5.88ZM292.378 32.38C290.244 32.38 288.358 31.9067 286.718 30.96C285.091 30 283.811 28.6933 282.878 27.04C281.958 25.3733 281.498 23.48 281.498 21.36C281.498 19.24 281.958 17.36 282.878 15.72C283.811 14.08 285.091 12.7933 286.718 11.86C288.358 10.9267 290.244 10.46 292.378 10.46C294.511 10.46 296.391 10.9267 298.018 11.86C299.658 12.7933 300.938 14.08 301.858 15.72C302.791 17.36 303.258 19.24 303.258 21.36C303.258 23.48 302.791 25.3733 301.858 27.04C300.938 28.6933 299.658 30 298.018 30.96C296.391 31.9067 294.511 32.38 292.378 32.38ZM292.378 29.26C293.844 29.26 295.138 28.9333 296.258 28.28C297.378 27.6267 298.251 26.7067 298.878 25.52C299.518 24.3333 299.838 22.9467 299.838 21.36C299.838 19.7733 299.518 18.4 298.878 17.24C298.251 16.0667 297.378 15.1667 296.258 14.54C295.138 13.9 293.844 13.58 292.378 13.58C290.924 13.58 289.631 13.9 288.498 14.54C287.378 15.1667 286.498 16.0667 285.858 17.24C285.231 18.4 284.918 19.7733 284.918 21.36C284.918 22.9467 285.231 24.3333 285.858 25.52C286.498 26.7067 287.378 27.6267 288.498 28.28C289.631 28.9333 290.924 29.26 292.378 29.26Z" fill="white"/>
</svg>
